<svg width="30" height="18" viewBox="0 0 30 18" fill="none" xmlns="http://www.w3.org/2000/svg">
<path d="M3.125 1.25386e-05C2.77981 1.25386e-05 2.5 0.287829 2.5 0.64287C2.5 0.99791 2.77981 1.28573 3.125 1.28573H20.5957L23.8477 6.45872C23.9219 6.57408 24.0334 6.66364 24.1602 6.70984L28.75 8.47771V14.7858H26.8555C26.7016 13.3422 25.505 12.2143 24.0625 12.2143C22.62 12.2143 21.4234 13.3422 21.2695 14.7858H11.2305C11.0766 13.3422 9.88003 12.2143 8.4375 12.2143C6.99497 12.2143 5.7984 13.3422 5.64453 14.7858H3.75V10.9286C3.75 10.5736 3.47019 10.2858 3.125 10.2858C2.77981 10.2858 2.5 10.5736 2.5 10.9286V15.4286C2.50003 15.7652 2.79775 16.0714 3.125 16.0714H5.79103C6.18006 17.1914 7.22072 18 8.4375 18C9.65428 18 10.6949 17.1914 11.084 16.0714H21.416C21.8051 17.1914 22.8457 18 24.0625 18C25.2793 18 26.3199 17.1914 26.709 16.0714H29.375C29.7022 16.0714 30 15.7652 30 15.4286V8.03573C30 7.77466 29.8282 7.52281 29.5898 7.43305L24.7949 5.58484L21.4648 0.291307C21.3511 0.11214 21.1456 -0.00137282 20.9375 1.25386e-05H3.125ZM0.624997 2.57144C0.27981 2.57144 -7.15256e-07 2.85926 -7.15256e-07 3.2143C-7.15256e-07 3.56934 0.27981 3.85716 0.624997 3.85716H9.375C9.72019 3.85716 10 3.56934 10 3.2143C10 2.85926 9.72019 2.57144 9.375 2.57144H0.624997ZM1.25 5.14287C0.904811 5.14287 0.624997 5.43069 0.624997 5.78573C0.624997 6.14077 0.904811 6.42859 1.25 6.42859H9.375C9.72019 6.42859 10 6.14077 10 5.78573C10 5.43069 9.72019 5.14287 9.375 5.14287H1.25ZM2.5 7.7143C2.15481 7.7143 1.875 8.00211 1.875 8.35714C1.875 8.71222 2.15481 9.00004 2.5 9.00004H9.375C9.72019 9.00004 10 8.71222 10 8.35714C10 8.00211 9.72019 7.7143 9.375 7.7143H2.5ZM8.4375 13.5C9.30784 13.5 10 14.212 10 15.1072C10 16.0024 9.30784 16.7143 8.4375 16.7143C7.56716 16.7143 6.875 16.0024 6.875 15.1072C6.875 14.212 7.56716 13.5 8.4375 13.5ZM24.0625 13.5C24.9328 13.5 25.625 14.212 25.625 15.1072C25.625 16.0024 24.9328 16.7143 24.0625 16.7143C23.1922 16.7143 22.5 16.0024 22.5 15.1072C22.5 14.212 23.1922 13.5 24.0625 13.5Z" fill="black"/>
</svg>
