<svg id="Layer_1" data-name="Layer 1" xmlns="http://www.w3.org/2000/svg" xmlns:xlink="http://www.w3.org/1999/xlink" viewBox="0 0 493.03 493.03"><defs><style>.cls-1,.cls-5,.cls-6,.cls-7,.cls-8,.cls-9{fill:none;}.cls-2{fill:#eaeaea;}.cls-3{opacity:0.5;}.cls-4{fill:#fafafa;}.cls-5{stroke:#c9c9c9;}.cls-5,.cls-7,.cls-8,.cls-9{stroke-width:2.42px;}.cls-6{stroke-width:2.42px;stroke:url(#linear-gradient);}.cls-7{stroke:url(#linear-gradient-2);}.cls-8{stroke:url(#linear-gradient-3);}.cls-9{stroke:url(#linear-gradient-4);}.cls-10{fill:#fff;}.cls-11{clip-path:url(#clip-path);}.cls-12{fill:#666;fill-rule:evenodd;}</style><linearGradient id="linear-gradient" x1="767.88" y1="182.39" x2="213.34" y2="182.38" gradientTransform="translate(-228.02 466.28) rotate(-45)" gradientUnits="userSpaceOnUse"><stop offset="0" stop-color="#c9c9c9" stop-opacity="0"/><stop offset="0.21" stop-color="#c9c9c9"/><stop offset="0.79" stop-color="#c9c9c9"/><stop offset="1" stop-color="#c9c9c9" stop-opacity="0"/></linearGradient><linearGradient id="linear-gradient-2" x1="443.07" y1="953.3" x2="50.67" y2="953.3" gradientTransform="matrix(1, 0, 0, -1, 0, 1199.09)" xlink:href="#linear-gradient"/><linearGradient id="linear-gradient-3" x1="246" y1="1147.96" x2="246" y2="755.55" gradientTransform="matrix(1, 0, 0, -1, 0, 1199.09)" xlink:href="#linear-gradient"/><linearGradient id="linear-gradient-4" x1="50.77" y1="1146.82" x2="442.9" y2="754.7" gradientTransform="matrix(1, 0, 0, -1, 0, 1199.09)" xlink:href="#linear-gradient"/><clipPath id="clip-path" transform="translate(0.02 -0.6)"><rect class="cls-1" x="227.86" y="227.65" width="38.69" height="38.69"/></clipPath></defs><rect class="cls-2" width="493.03" height="493.03" rx="1.23"/><g class="cls-3"><g class="cls-3"><path class="cls-4" d="M247.21,383.62A136.62,136.62,0,1,1,383.83,247,136.62,136.62,0,0,1,247.21,383.62Z" transform="translate(0.02 -0.6)"/><path class="cls-5" d="M247.21,383.62A136.62,136.62,0,1,1,383.83,247,136.62,136.62,0,0,1,247.21,383.62Z" transform="translate(0.02 -0.6)"/></g><path class="cls-6" d="M52.49,443.71,443.93,52.27" transform="translate(0.02 -0.6)"/><path class="cls-7" d="M51.35,245.79H443.07" transform="translate(0.02 -0.6)"/><path class="cls-8" d="M246,442.86V51.13" transform="translate(0.02 -0.6)"/><path class="cls-9" d="M442.22,443.71,50.78,52.27" transform="translate(0.02 -0.6)"/><path class="cls-10" d="M247.21,303.82A56.83,56.83,0,1,1,304,247,56.83,56.83,0,0,1,247.21,303.82Z" transform="translate(0.02 -0.6)"/><g class="cls-11"><path class="cls-12" d="M262.93,233.7H231.49v16.17l3.55-3.55.54-.53h9.06l.08-.08,8.46-8.46h2.57l7.18,7.18V233.7Zm-15.72,14.65,3.7,3.7,1.28,1.28-2.56,2.57-1.28-1.29-5.2-5.2h-6.07l-5.51,5.52-.08.07v2.88a2.42,2.42,0,0,0,2.42,2.42h26.6a2.43,2.43,0,0,0,2.42-2.42h0v-8.32l-8.47-8.46-7.18,7.18-.07.07Zm-19.35,5.44v4.09a6,6,0,0,0,6,6h26.6a6,6,0,0,0,6-6h0v-7.11l1.36-1.36-1.28-1.28-.08-.07v-18H227.86V253.5l-.14.15.14.14Z" transform="translate(0.02 -0.6)"/></g><path class="cls-5" d="M247.21,303.82A56.83,56.83,0,1,1,304,247,56.83,56.83,0,0,1,247.21,303.82Z" transform="translate(0.02 -0.6)"/></g></svg>